<svg width="512" height="412" viewBox="0 0 512 412" fill="none" xmlns="http://www.w3.org/2000/svg">
<g clip-path="url(#clip0_25_145)">
<path d="M464.87 405.68C429.982 417.596 373.278 410.645 349.287 405.68C339.914 398.735 314.517 378.66 287.917 353.926C275.626 342.498 269.575 331.581 265.563 320.65L236.862 275.445C229.228 292.771 223.318 290.908 201.583 288.01C180.583 285.21 139.556 277.102 121.667 273.398C118.5 278 110.502 292.307 103 312C95 333 100 343.5 96 346.5C89.3333 351.5 85.8474 353.628 80.8333 349L80.7011 348.878C76.46 344.967 74.5648 343.219 80.8333 316C83.7887 303.167 104.12 227.995 121.667 236.093C139.867 244.493 182.528 239.593 201.583 236.093C201.972 241.343 202.517 241.11 201.583 198.176C200.65 155.243 243.583 128.26 257 117.093C208.5 77.5 134.5 128 114 146C93.5 164 68.5 170.76 34 170.76C40.5 87 52 61.2597 133 9.75967C174 -14.7403 254.693 10.6082 274.832 44.6539C300.005 87.2111 263.132 93.5946 331.56 105.298C399.987 117.001 408.142 203.889 417.006 273.398C425.87 342.908 508.479 390.785 464.87 405.68Z" fill="#A28AB7"/>
<path d="M169 221C172 216 206 221 208.5 221L220.5 242L188.5 248.5C180 263.833 161.908 302.152 159.5 308C156 316.5 158.114 315.493 153 321C146.5 328 144.5 327 142.5 324C138.617 318.176 144 313 148 306C151.018 300.719 166 226 169 221Z" fill="#A28AB7"/>
</g>
<defs>
<clipPath id="clip0_25_145">
<rect width="512" height="412" fill="white"/>
</clipPath>
</defs>
</svg>
